<svg width="420" height="220" viewBox="0 0 420 220" fill="none" xmlns="http://www.w3.org/2000/svg" role="img" aria-labelledby="title desc">
  <title id="title">Top languages for Faheem506pk</title>
  <desc id="desc">Generated from repository language byte totals available to the workflow token.</desc>
  <rect x="0.5" y="0.5" width="419" height="219" rx="8" fill="#0d1117" stroke="#30363d"/>
  <text x="24" y="34" fill="#58a6ff" font-size="18" font-family="Segoe UI, Ubuntu, sans-serif" font-weight="600" text-anchor="start">Custom Top Languages</text>
  <text x="24" y="58" fill="#8b949e" font-size="11" font-family="Segoe UI, Ubuntu, sans-serif" font-weight="400" text-anchor="start">By repository language bytes</text>
  <rect x="28" y="72" width="10" height="10" rx="2" fill="#f0883e"/><text x="46" y="82" fill="#c9d1d9" font-size="13" font-family="Segoe UI, Ubuntu, sans-serif" font-weight="400" text-anchor="start">JavaScript</text><text x="214" y="82" fill="#8b949e" font-size="13" font-family="Segoe UI, Ubuntu, sans-serif" font-weight="600" text-anchor="end">32.2%</text><rect x="28" y="94" width="10" height="10" rx="2" fill="#58a6ff"/><text x="46" y="104" fill="#c9d1d9" font-size="13" font-family="Segoe UI, Ubuntu, sans-serif" font-weight="400" text-anchor="start">HTML</text><text x="214" y="104" fill="#8b949e" font-size="13" font-family="Segoe UI, Ubuntu, sans-serif" font-weight="600" text-anchor="end">23.2%</text><rect x="28" y="116" width="10" height="10" rx="2" fill="#ff7b72"/><text x="46" y="126" fill="#c9d1d9" font-size="13" font-family="Segoe UI, Ubuntu, sans-serif" font-weight="400" text-anchor="start">TypeScript</text><text x="214" y="126" fill="#8b949e" font-size="13" font-family="Segoe UI, Ubuntu, sans-serif" font-weight="600" text-anchor="end">16.3%</text><rect x="28" y="138" width="10" height="10" rx="2" fill="#bc8cff"/><text x="46" y="148" fill="#c9d1d9" font-size="13" font-family="Segoe UI, Ubuntu, sans-serif" font-weight="400" text-anchor="start">CSS</text><text x="214" y="148" fill="#8b949e" font-size="13" font-family="Segoe UI, Ubuntu, sans-serif" font-weight="600" text-anchor="end">13.4%</text><rect x="28" y="160" width="10" height="10" rx="2" fill="#d29922"/><text x="46" y="170" fill="#c9d1d9" font-size="13" font-family="Segoe UI, Ubuntu, sans-serif" font-weight="400" text-anchor="start">SCSS</text><text x="214" y="170" fill="#8b949e" font-size="13" font-family="Segoe UI, Ubuntu, sans-serif" font-weight="600" text-anchor="end">12.8%</text><rect x="28" y="182" width="10" height="10" rx="2" fill="#3fb950"/><text x="46" y="192" fill="#c9d1d9" font-size="13" font-family="Segoe UI, Ubuntu, sans-serif" font-weight="400" text-anchor="start">Less</text><text x="214" y="192" fill="#8b949e" font-size="13" font-family="Segoe UI, Ubuntu, sans-serif" font-weight="600" text-anchor="end">2.1%</text>
  <circle cx="315" cy="116" r="52" stroke="#161b22" stroke-width="24" fill="none"/>
  <path d="M 361.82 138.63 A 52 52 0 0 0 315.00 64.00" stroke="#f0883e" stroke-width="24" fill="none"/><path d="M 297.72 165.05 A 52 52 0 0 0 361.82 138.63" stroke="#58a6ff" stroke-width="24" fill="none"/><path d="M 264.10 126.64 A 52 52 0 0 0 297.72 165.05" stroke="#ff7b72" stroke-width="24" fill="none"/><path d="M 273.11 85.19 A 52 52 0 0 0 264.10 126.64" stroke="#bc8cff" stroke-width="24" fill="none"/><path d="M 308.05 64.47 A 52 52 0 0 0 273.11 85.19" stroke="#d29922" stroke-width="24" fill="none"/><path d="M 315.00 64.00 A 52 52 0 0 0 308.05 64.47" stroke="#3fb950" stroke-width="24" fill="none"/>
  <circle cx="315" cy="116" r="31" fill="#0d1117"/>
</svg>
